<!DOCTYPE svg PUBLIC "-//W3C//DTD SVG 1.1//EN" "http://www.w3.org/Graphics/SVG/1.1/DTD/svg11.dtd">
<!-- Uploaded to: SVG Repo, www.svgrepo.com, Transformed by: SVG Repo Mixer Tools -->
<svg width="800px" height="800px" viewBox="-4.8 -4.8 57.60 57.60" fill="none" xmlns="http://www.w3.org/2000/svg" stroke="#fbc639">
<g id="SVGRepo_bgCarrier" stroke-width="0">
<rect x="-4.8" y="-4.8" width="57.60" height="57.60" rx="28.8" fill="#ffe3bf" strokewidth="0"/>
</g>
<g id="SVGRepo_tracerCarrier" stroke-linecap="round" stroke-linejoin="round"/>
<g id="SVGRepo_iconCarrier"> <path d="M20 8C20 5.79086 21.7909 4 24 4C26.2091 4 28 5.79086 28 8V30C28 32.2091 26.2091 34 24 34C21.7909 34 20 32.2091 20 30V8Z" fill="#fbc639"/> <path d="M20 40C20 37.7909 21.7909 36 24 36C26.2091 36 28 37.7909 28 40C28 42.2091 26.2091 44 24 44C21.7909 44 20 42.2091 20 40Z" fill="#fbc639"/> </g>
</svg>