<svg xmlns="http://www.w3.org/2000/svg" version="1.1" xmlns:xlink="http://www.w3.org/1999/xlink" width="512" height="512" x="0" y="0" viewBox="0 0 1024 1024" style="enable-background:new 0 0 512 512" xml:space="preserve" class=""><g><path d="m807.8 325.9-27.4-27.4-65.4-65.4-79.5-79.5-68.4-68.4C556 74.1 545 62.7 533.7 51.8l-.5-.5c-11.5-11.5-30.9-11.5-42.4 0l-27.4 27.4-65.4 65.4-79.5 79.5-68.4 68.4c-11.1 11.1-22.5 22.1-33.4 33.4l-.5.5c-11.1 11.1-11.9 31.5 0 42.4 12 11 30.6 11.9 42.4 0l27.4-27.4 65.4-65.4 79.5-79.5 68.4-68.4c11.1-11.1 22.6-22 33.4-33.4l.5-.5h-42.4l27.4 27.4 65.4 65.4 79.5 79.5 68.4 68.4c11.1 11.1 22.1 22.5 33.4 33.4l.5.5c11.1 11.1 31.5 11.9 42.4 0s11.8-30.5 0-42.4zM765.3 655.7l-27.4 27.4-65.4 65.4L593 828l-68.4 68.4c-11.1 11.1-22.6 22-33.4 33.4l-.5.5h42.4l-27.4-27.4-65.4-65.4-79.5-79.5-68.4-68.4c-11.1-11.1-22.1-22.5-33.4-33.4l-.5-.5c-11.1-11.1-31.5-11.9-42.4 0-11 12-11.9 30.6 0 42.4l27.4 27.4 65.4 65.4 79.5 79.5 68.4 68.4c11.1 11.1 22.1 22.5 33.4 33.4l.5.5c11.5 11.5 30.9 11.5 42.4 0l27.4-27.4 65.4-65.4 79.5-79.5 68.4-68.4c11.1-11.1 22.5-22.1 33.4-33.4l.5-.5c11.1-11.1 11.9-31.5 0-42.4-11.9-11-30.5-11.9-42.4 0z" fill="#969ea7" opacity="1" data-original="#000000"></path></g></svg>