<svg xmlns="http://www.w3.org/2000/svg" version="1.1" xmlns:xlink="http://www.w3.org/1999/xlink" width="512" height="512" x="0" y="0" viewBox="0 0 511.998 511.998" style="enable-background:new 0 0 512 512" xml:space="preserve" class=""><rect width="511.998" height="511.998" rx="102.39959999999999" ry="102.39959999999999" fill="#cfcfcf" shape="rounded" transform="matrix(1,0,0,1,0,0)"></rect><g transform="matrix(0.6,0,0,0.6,102.39952697753904,102.39970092773439)"><path d="M464.059 61.565c-63.814-63.814-167.651-63.814-231.467 0L34.181 259.973c-45.578 45.584-45.575 119.754.008 165.335 22.793 22.793 52.723 34.189 82.665 34.186 29.934-.003 59.878-11.396 82.668-34.186l181.87-181.872c27.352-27.346 27.355-71.848.003-99.204-27.352-27.349-71.856-27.348-99.202.005L163.258 263.168c-9.131 9.13-9.131 23.935-.002 33.067 9.133 9.131 23.935 9.131 33.068 0l118.937-118.934c9.116-9.117 23.951-9.117 33.067-.003 9.116 9.119 9.116 23.951-.003 33.068L166.457 392.241c-27.352 27.348-71.852 27.352-99.202.002-27.349-27.351-27.352-71.853-.006-99.204l198.41-198.407c45.583-45.579 119.752-45.581 165.335.002 22.082 22.08 34.244 51.439 34.242 82.666 0 31.228-12.16 60.586-34.245 82.668L232.587 458.379c-9.131 9.131-9.131 23.935.002 33.067a23.308 23.308 0 0 0 16.533 6.848 23.318 23.318 0 0 0 16.534-6.848l198.401-198.409c30.916-30.913 47.941-72.015 47.941-115.735.003-43.722-17.023-84.824-47.939-115.737z" fill="#ffffff" opacity="1" data-original="#000000"></path></g></svg>