<svg xmlns="http://www.w3.org/2000/svg" version="1.1" xmlns:xlink="http://www.w3.org/1999/xlink" width="512" height="512" x="0" y="0" viewBox="0 0 64 64" style="enable-background:new 0 0 512 512" xml:space="preserve" class=""><g><linearGradient id="a" x1="11.02" x2="52.98" y1="32" y2="32" gradientUnits="userSpaceOnUse"><stop stop-opacity="1" stop-color="#b776e8" offset="0"></stop><stop stop-opacity="1" stop-color="#3e82e0" offset="1"></stop></linearGradient><path fill="url(#a)" d="M48.98 6.17h-7.97A3.009 3.009 0 0 0 38.13 4H25.87a3.009 3.009 0 0 0-2.88 2.17h-7.97a3.999 3.999 0 0 0-4 4V56a3.999 3.999 0 0 0 4 4h33.96a3.999 3.999 0 0 0 4-4V10.17a3.999 3.999 0 0 0-4-4zM47.15 42h-19.6a1 1 0 0 1 0-2h19.6a1 1 0 0 1 0 2zm1 8.87a1.003 1.003 0 0 1-1 1h-19.6a1 1 0 0 1 0-2h19.6a1.003 1.003 0 0 1 1 1zm-1-18.74h-19.6a1 1 0 0 1 0-2h19.6a1 1 0 0 1 0 2zm-27.3 3c-5.276-.133-5.275-7.868 0-8 5.276.133 5.275 7.868 0 8zm4 5.87c-.133 5.276-7.868 5.275-8 0 .133-5.276 7.868-5.275 8 0zm-4-15.74c-5.276-.133-5.275-7.868 0-8 5.276.133 5.275 7.868 0 8zm0 21.61c5.276.133 5.275 7.868 0 8-5.276-.133-5.275-7.868 0-8zm27.3-24.61h-19.6a1 1 0 0 1 0-2h19.6a1 1 0 0 1 0 2zM24.87 7a1.003 1.003 0 0 1 1-1h12.26a1.003 1.003 0 0 1 1 1v4.13a1.003 1.003 0 0 1-1 1H25.87a1.003 1.003 0 0 1-1-1zm-5.02 41.87a2 2 0 0 1 0 4 2 2 0 0 1 0-4zm0-5.87a2 2 0 0 1 0-4 2 2 0 0 1 0 4zm0-9.87a2 2 0 0 1 0-4 2 2 0 0 1 0 4zm0-9.87a2 2 0 0 1 0-4 2 2 0 0 1 0 4z" opacity="1" data-original="url(#a)" class=""></path></g></svg>