<svg xmlns="http://www.w3.org/2000/svg" version="1.1" xmlns:xlink="http://www.w3.org/1999/xlink" width="512" height="512" x="0" y="0" viewBox="0 0 64 64" style="enable-background:new 0 0 512 512" xml:space="preserve" class=""><g><path d="M48.98 6.17h-7.982A2.995 2.995 0 0 0 38.13 4H25.87a2.995 2.995 0 0 0-2.868 2.17H15.02a4.004 4.004 0 0 0-4 4V56a4.004 4.004 0 0 0 4 4h33.96a4.004 4.004 0 0 0 4-4V10.17a4.004 4.004 0 0 0-4-4zM24.87 7a1 1 0 0 1 1-1h12.26a1 1 0 0 1 1 1v4.13a1 1 0 0 1-1 1H25.87a1 1 0 0 1-1-1zm26.11 49a2.003 2.003 0 0 1-2 2H15.02a2.003 2.003 0 0 1-2-2V10.17a2.003 2.003 0 0 1 2-2h7.85v2.96a3.003 3.003 0 0 0 3 3h12.26a3.003 3.003 0 0 0 3-3V8.17h7.85a2.003 2.003 0 0 1 2 2z" fill="#777777" opacity="1" data-original="#000000" class=""></path><path d="M19.85 17.26a4 4 0 0 0 0 8 4 4 0 0 0 0-8zm0 6a2 2 0 0 1 0-4 2 2 0 0 1 0 4zM47.15 20.26H27.552a1 1 0 0 0 0 2h19.596a1 1 0 0 0 0-2zM19.85 27.13a4 4 0 0 0 0 8 4 4 0 0 0 0-8zm0 6a2 2 0 0 1 0-4 2 2 0 0 1 0 4zM47.15 30.13H27.552a1 1 0 0 0 0 2h19.596a1 1 0 0 0 0-2zM19.85 37a4 4 0 0 0 0 8 4 4 0 0 0 0-8zm0 6a2 2 0 0 1 0-4 2 2 0 0 1 0 4zM47.15 40H27.552a1 1 0 0 0 0 2h19.596a1 1 0 0 0 0-2zM19.85 46.87a4 4 0 0 0 0 8 4 4 0 0 0 0-8zm0 6a2 2 0 0 1 0-4 2 2 0 0 1 0 4zM47.15 49.87H27.552a1 1 0 0 0 0 2h19.596a1 1 0 0 0 0-2z" fill="#777777" opacity="1" data-original="#000000" class=""></path></g></svg>