<svg xmlns="http://www.w3.org/2000/svg" version="1.1" xmlns:xlink="http://www.w3.org/1999/xlink" width="512" height="512" x="0" y="0" viewBox="0 0 64 64" style="enable-background:new 0 0 512 512" xml:space="preserve" class=""><g><path d="M57 18H7a1 1 0 0 1-1-1v-5a3.003 3.003 0 0 1 3-3h2a1 1 0 0 1 0 2H9a1.001 1.001 0 0 0-1 1v4h48v-4a1 1 0 0 0-1-1h-2a1 1 0 0 1 0-2h2a3.003 3.003 0 0 1 3 3v5a1 1 0 0 1-1 1Z" fill="#ffffff" opacity="1" data-original="#000000"></path><path d="M49 11H34a1 1 0 0 1 0-2h15a1 1 0 0 1 0 2ZM30 11H15a1 1 0 0 1 0-2h15a1 1 0 0 1 0 2ZM45.756 58H9a3.003 3.003 0 0 1-3-3V17a1 1 0 0 1 1-1h50a1 1 0 0 1 1 1v28.756a1 1 0 1 1-2 0V18H8v37a1.001 1.001 0 0 0 1 1h36.756a1 1 0 0 1 0 2Z" fill="#ffffff" opacity="1" data-original="#000000"></path><path d="M13 14a3.003 3.003 0 0 1-3-3V9a3 3 0 0 1 6 0v2a3.003 3.003 0 0 1-3 3Zm0-6a1.001 1.001 0 0 0-1 1v2a1 1 0 0 0 2 0V9a1.001 1.001 0 0 0-1-1ZM32 14a3.003 3.003 0 0 1-3-3V9a3 3 0 0 1 6 0v2a3.003 3.003 0 0 1-3 3Zm0-6a1.001 1.001 0 0 0-1 1v2a1 1 0 0 0 2 0V9a1.001 1.001 0 0 0-1-1ZM51 14a3.003 3.003 0 0 1-3-3V9a3 3 0 0 1 6 0v2a3.003 3.003 0 0 1-3 3Zm0-6a1 1 0 0 0-1 1v2a1 1 0 0 0 2 0V9a1 1 0 0 0-1-1ZM44.065 54H11a1 1 0 0 1-1-1V17a1 1 0 0 1 1-1h42a1 1 0 0 1 1 1v27.065a1 1 0 0 1-2 0V18H12v34h32.065a1 1 0 1 1 0 2Z" fill="#ffffff" opacity="1" data-original="#000000"></path><path d="M19.4 26.8a.997.997 0 0 1-.707-.293l-2.4-2.4a1 1 0 0 1 1.414-1.414l1.693 1.693 2.893-2.893a1 1 0 0 1 1.414 1.414l-3.6 3.6a.997.997 0 0 1-.707.293ZM31.4 26.8a.997.997 0 0 1-.707-.293l-2.4-2.4a1 1 0 0 1 1.414-1.414l1.693 1.693 2.893-2.893a1 1 0 0 1 1.414 1.414l-3.6 3.6a.997.997 0 0 1-.707.293ZM31.4 47.8a.997.997 0 0 1-.707-.293l-2.4-2.4a1 1 0 0 1 1.414-1.414l1.693 1.693 2.893-2.893a1 1 0 0 1 1.414 1.414l-3.6 3.6a.997.997 0 0 1-.707.293ZM43.4 26.8a.997.997 0 0 1-.707-.293l-2.4-2.4a1 1 0 0 1 1.414-1.414l1.693 1.693 2.893-2.893a1 1 0 0 1 1.414 1.414l-3.6 3.6a.997.997 0 0 1-.707.293ZM23 39h-6a1 1 0 0 1-1-1v-6a1 1 0 0 1 1-1h6a1 1 0 0 1 1 1v6a1 1 0 0 1-1 1Zm-5-2h4v-4h-4ZM35 39h-6a1 1 0 0 1-1-1v-6a1 1 0 0 1 1-1h6a1 1 0 0 1 1 1v6a1 1 0 0 1-1 1Zm-5-2h4v-4h-4ZM47 39h-6a1 1 0 0 1-1-1v-6a1 1 0 0 1 1-1h6a1 1 0 0 1 1 1v6a1 1 0 0 1-1 1Zm-5-2h4v-4h-4ZM23 49h-6a1 1 0 0 1-1-1v-6a1 1 0 0 1 1-1h6a1 1 0 0 1 1 1v6a1 1 0 0 1-1 1Zm-5-2h4v-4h-4ZM51.4 54.8a.997.997 0 0 1-.707-.293l-2.4-2.4a1 1 0 0 1 1.414-1.414l1.693 1.693 2.893-2.893a1 1 0 0 1 1.414 1.414l-3.6 3.6a.997.997 0 0 1-.707.293Z" fill="#ffffff" opacity="1" data-original="#000000"></path><path d="M52 61a9 9 0 1 1 9-9 9.01 9.01 0 0 1-9 9Zm0-16a7 7 0 1 0 7 7 7.008 7.008 0 0 0-7-7Z" fill="#ffffff" opacity="1" data-original="#000000"></path></g></svg>