<svg xmlns="http://www.w3.org/2000/svg" version="1.1" xmlns:xlink="http://www.w3.org/1999/xlink" width="512" height="512" x="0" y="0" viewBox="0 0 511.76 511.76" style="enable-background:new 0 0 512 512" xml:space="preserve" class=""><circle r="255.88" cx="255.88" cy="255.88" fill="#000000" shape="circle" transform="matrix(0.65,0,0,0.65,89.55800170898436,89.55800170898436)"></circle><g transform="matrix(0.7,0,0,0.7,76.76407012939455,76.76381149291993)"><path d="M436.896 74.869c-99.84-99.819-262.208-99.819-362.048 0-99.797 99.819-99.797 262.229 0 362.048 49.92 49.899 115.477 74.837 181.035 74.837s131.093-24.939 181.013-74.837c99.819-99.818 99.819-262.229 0-362.048zm-75.435 256.448c8.341 8.341 8.341 21.824 0 30.165a21.275 21.275 0 0 1-15.083 6.251 21.277 21.277 0 0 1-15.083-6.251l-75.413-75.435-75.392 75.413a21.348 21.348 0 0 1-15.083 6.251 21.277 21.277 0 0 1-15.083-6.251c-8.341-8.341-8.341-21.845 0-30.165l75.392-75.413-75.413-75.413c-8.341-8.341-8.341-21.845 0-30.165 8.32-8.341 21.824-8.341 30.165 0l75.413 75.413 75.413-75.413c8.341-8.341 21.824-8.341 30.165 0 8.341 8.32 8.341 21.824 0 30.165l-75.413 75.413 75.415 75.435z" fill="#d3d3d3" opacity="1" data-original="#000000" class=""></path></g></svg>