<svg xmlns="http://www.w3.org/2000/svg" version="1.1" xmlns:xlink="http://www.w3.org/1999/xlink" width="512" height="512" x="0" y="0" viewBox="0 0 512 512" style="enable-background:new 0 0 512 512" xml:space="preserve" class=""><g><linearGradient id="a" x1="0" x2="512" y1="256" y2="256" gradientUnits="userSpaceOnUse"><stop stop-opacity="1" stop-color="#7b7bee" offset="0"></stop><stop stop-opacity="1" stop-color="#9a87e4" offset="1"></stop></linearGradient><path fill="url(#a)" d="M369.164 174.77c7.813 7.812 7.813 20.476 0 28.285L234.992 337.23c-7.812 7.81-20.472 7.81-28.285 0l-63.871-63.875c-7.813-7.808-7.813-20.472 0-28.28 7.809-7.813 20.473-7.813 28.281 0l49.73 49.73L340.88 174.77c7.812-7.81 20.476-7.81 28.285 0zM512 256c0 141.504-114.516 256-256 256C114.496 512 0 397.484 0 256 0 114.496 114.516 0 256 0c141.504 0 256 114.516 256 256zm-40 0c0-119.395-96.621-216-216-216-119.395 0-216 96.621-216 216 0 119.395 96.621 216 216 216 119.395 0 216-96.621 216-216zm0 0" opacity="1" data-original="url(#a)" class=""></path></g></svg>