<svg xmlns="http://www.w3.org/2000/svg" version="1.1" xmlns:xlink="http://www.w3.org/1999/xlink" width="512" height="512" x="0" y="0" viewBox="0 0 6827 6827" style="enable-background:new 0 0 512 512" xml:space="preserve" fill-rule="evenodd" class=""><g transform="matrix(-1,0,0,-1,6828,6824)"><linearGradient id="a" x1="3413.33" x2="3413.33" y1="5973.33" y2="853.331" gradientUnits="userSpaceOnUse"><stop stop-opacity="1" stop-color="#a93aff" offset="0"></stop><stop stop-opacity="1" stop-color="#0079ff" offset="1"></stop></linearGradient><path fill="url(#a)" d="m2051 1619 332 62c83 16 138 96 123 179-16 83-96 138-179 123l-639-120c-32-6-61-20-84-43-37-37-51-90-42-141l120-639c16-83 96-138 179-123 83 16 138 96 123 179l-41 220c429-302 941-464 1471-464 681 0 1329 268 1810 750 482 482 750 1129 750 1810s-268 1329-750 1810c-482 482-1129 750-1810 750s-1329-268-1810-750c-238-238-426-520-555-831-129-310-195-643-195-979 0-85 69-154 154-154s154 69 154 154c0 296 58 589 171 862s279 522 488 731c424 424 993 660 1593 660 599 0 1169-236 1593-660s660-993 660-1593c0-599-236-1169-660-1593s-993-660-1593-660c-495 0-972 161-1362 458zm1209 1592V1871c0-85 69-154 154-154s154 69 154 154v1340c9 7 18 14 26 23 48 48 74 112 74 180s-27 132-74 180c-48 48-112 74-180 74s-132-27-180-74c-8-8-15-16-22-25l-1336 19c-85 1-155-67-156-152s67-154 152-155l1338-19c7-10 15-19 24-27 8-8 17-16 26-23z" opacity="1" data-original="url(#a)" class=""></path></g></svg>