<svg xmlns="http://www.w3.org/2000/svg" version="1.1" xmlns:xlink="http://www.w3.org/1999/xlink" width="512" height="512" x="0" y="0" viewBox="0 0 512 512" style="enable-background:new 0 0 512 512" xml:space="preserve" class=""><g><path fill="#3a6584" d="M60.152 140.712a7.1 7.1 0 1 1 0-14.2H80.04a7.1 7.1 0 0 1 0 14.2zm40.953 0a7.1 7.1 0 0 1 0-14.2h117.516a7.1 7.1 0 1 1 0 14.2zM25.894 402.7a7.1 7.1 0 0 1 0-14.2H68.63a7.1 7.1 0 0 1 0 14.2zm63.8 0a7.1 7.1 0 1 1 0-14.2h128.927a7.1 7.1 0 0 1 0 14.2zm-26.841-43.655a7.1 7.1 0 0 1 0-14.2H185.8a7.1 7.1 0 0 1 0 14.2zm-35.608-43.684a7.1 7.1 0 1 1 0-14.2h95.846a7.1 7.1 0 1 1 0 14.2zM7.07 271.706a7.1 7.1 0 0 1 0-14.2h37.361a7.1 7.1 0 1 1 0 14.2zm58.456 0a7.1 7.1 0 1 1 0-14.2h98.145a7.1 7.1 0 1 1 0 14.2zm-18.135-43.655a7.1 7.1 0 0 1 0-14.2h39.374a7.1 7.1 0 0 1 0 14.2zm60.439 0a7.1 7.1 0 0 1 0-14.2h61.158a7.1 7.1 0 0 1 0 14.2zm-81.936-43.684a7.085 7.085 0 1 1 0-14.169h97.2a7.085 7.085 0 1 1 0 14.169z" opacity="1" data-original="#3a6584" class=""></path><path fill="#3a6584" fill-rule="evenodd" d="M488.255 104.672a18.874 18.874 0 0 1 0 26.671l-138.9 138.9 13.91 51.9-42.1-11.266-2.615-9.8-7.185 7.156-42.074-11.266 37.964-37.993-50.842-189.737a18.933 18.933 0 0 1 13.364-23.107 18.892 18.892 0 0 1 23.107 13.335l45.207 168.672 123.493-123.465a18.874 18.874 0 0 1 26.671 0z" opacity="1" data-original="#3a6584" class=""></path><path fill="#3a6584" fill-rule="evenodd" d="M333.406 318.523c-6.437 24-42.735 13.708-36.441-9.772a768591.268 768591.268 0 0 1 70.153-261.873 18.878 18.878 0 0 1 36.47 9.771c-22.014 82.137-48.167 179.736-70.182 261.874z" opacity="1" data-original="#3a6584" class=""></path><path fill="#4777bf" fill-rule="evenodd" d="M505.7 312.142c-26.267 97.944-126.942 156.084-224.914 129.845C182.841 415.719 124.7 315.045 150.94 217.072c26.268-97.944 126.942-156.083 224.915-129.844C473.8 113.5 531.939 214.17 505.7 312.142z" opacity="1" data-original="#ff5876" class=""></path><path fill="#e4e9ef" fill-rule="evenodd" d="M478.914 304.958A155.907 155.907 0 1 1 368.67 114.013a155.923 155.923 0 0 1 110.244 190.945z" opacity="1" data-original="#ffe6eb" class=""></path><path fill="#3a6584" d="M342.89 182.844a7.093 7.093 0 1 1 13.709 3.65l-20.376 75.987 29.688 29.688a7.1 7.1 0 0 1-10.059 10.03l-32.562-32.562v-.029a7.03 7.03 0 0 1-1.811-6.84z" opacity="1" data-original="#3a6584" class=""></path><g fill-rule="evenodd"><path fill="#4777bf" d="M332.544 248.8a16.379 16.379 0 1 1-20.06 11.582 16.362 16.362 0 0 1 20.06-11.582z" opacity="1" data-original="#eb9c2c" class=""></path><path fill="#4777bf" d="m351.225 12.304 83.402 22.359-8.737 32.504-83.373-22.33z" opacity="1" data-original="#ffba57" class=""></path><path fill="#4bd16d" d="M503.285 408.477a91.219 91.219 0 1 1-91.219-91.219 91.217 91.217 0 0 1 91.219 91.219z" opacity="1" data-original="#4bd16d" class=""></path><path fill="#eaf6ff" d="m391.345 425.692-17.5-17.531a11.574 11.574 0 0 0-16.382 16.353l25.722 25.693a11.518 11.518 0 0 0 16.353 0l67.104-67.107a11.563 11.563 0 1 0-16.352-16.352z" opacity="1" data-original="#eaf6ff" class=""></path><path fill="#c3dbff" d="M444.571 175.055a183.187 183.187 0 0 1 17.042 137.087q-2.285 8.493-5.288 16.554a96.161 96.161 0 0 1 10.777 7.013 156.172 156.172 0 0 0-42.678-193.9q-5.475-4.268-11.352-8.1 4.914 4.872 9.427 10.03a183.958 183.958 0 0 1 22.072 31.326z" opacity="1" data-original="#e6cfd4" class=""></path><path fill="#4777bf" d="M451.094 168.531A156.12 156.12 0 0 1 467.1 335.709a91.259 91.259 0 0 1 20.089 21.037 183.769 183.769 0 0 0-43.023-234.657 181.949 181.949 0 0 0-50.351-29.027 181.557 181.557 0 0 0-36.442-9.772 182.3 182.3 0 0 0-51.185-1.005 184.011 184.011 0 0 1 48.081 12.559 183.177 183.177 0 0 1 58.8 38.855q5.863 3.837 11.352 8.1a156.452 156.452 0 0 1 26.67 26.727z" opacity="1" data-original="#e84362" class=""></path></g><path fill="#3a6584" d="M194.509 236.1a7.093 7.093 0 1 1 3.65-13.709l18.163 4.886a7.079 7.079 0 1 1-3.65 13.68zm32.159-63.083a7.113 7.113 0 0 1 10.059-10.059l13.278 13.307a7.092 7.092 0 1 1-10.03 10.03zm59.432-38.57a7.093 7.093 0 1 1 13.709-3.65l4.857 18.134a7.1 7.1 0 0 1-13.709 3.679zm70.728-3.65a7.093 7.093 0 1 1 13.709 3.65l-4.886 18.163a7.079 7.079 0 1 1-13.68-3.65zm63.083 32.188a7.092 7.092 0 1 1 10.03 10.03l-13.277 13.278a7.092 7.092 0 1 1-10.03-10.03zm38.568 59.4a7.093 7.093 0 1 1 3.65 13.709L444 240.955a7.1 7.1 0 0 1-3.679-13.709zm3.65 70.728a7.093 7.093 0 1 1-3.65 13.709l-18.163-4.857a7.093 7.093 0 0 1 3.65-13.709zm-162.32 105.3a7.093 7.093 0 1 1-13.709-3.65l4.857-18.163a7.093 7.093 0 0 1 13.709 3.65zm-63.083-32.159a7.113 7.113 0 1 1-10.058-10.054l13.307-13.278a7.093 7.093 0 1 1 10.03 10.031zm-38.568-59.433a7.093 7.093 0 1 1-3.65-13.709l18.134-4.857a7.1 7.1 0 0 1 3.679 13.709z" opacity="1" data-original="#3a6584" class=""></path><path fill="#20b345" fill-rule="evenodd" d="M482.765 408.477a91.252 91.252 0 0 1-80.959 90.673 92.783 92.783 0 0 0 10.26.546A91.253 91.253 0 0 0 467.1 335.709a96.161 96.161 0 0 0-10.777-7.013 90.959 90.959 0 0 0-44.259-11.438 92.747 92.747 0 0 0-10.26.575 91.2 91.2 0 0 1 80.959 90.644z" opacity="1" data-original="#20b345" class=""></path><path fill="#345b77" fill-rule="evenodd" d="M376.171 87.343a178.1 178.1 0 0 1 17.646 5.719c2.931-10.921 5.805-21.67 8.622-32.159l-17.905-4.8q-4.1 15.3-8.363 31.24z" opacity="1" data-original="#345b77" class=""></path><path fill="#4777bf" fill-rule="evenodd" d="m348.006 24.375 33.395 8.966 16.583 4.426 16.266 4.369-5.489 20.462 17.129 4.569 8.737-32.504-83.402-22.359z" opacity="1" data-original="#eb9c2c" class=""></path><path fill="#4777bf" fill-rule="evenodd" d="M321.537 249.692a16.376 16.376 0 0 1 0 29.831 16.382 16.382 0 0 1 0-29.831z" opacity="1" data-original="#ffba57" class=""></path></g></svg>