<svg xmlns="http://www.w3.org/2000/svg" version="1.1" xmlns:xlink="http://www.w3.org/1999/xlink" width="512" height="512" x="0" y="0" viewBox="0 0 64 64" style="enable-background:new 0 0 512 512" xml:space="preserve" class=""><g><linearGradient id="a" x1="10.086" x2="53.914" y1="64.914" y2="21.086" gradientUnits="userSpaceOnUse"><stop stop-opacity="1" stop-color="#b776e8" offset="0"></stop><stop stop-opacity="1" stop-color="#3e82e0" offset="1"></stop></linearGradient><path fill="url(#a)" d="m63.414 30.586-30-30a2 2 0 0 0-2.828 0l-30 30A2 2 0 0 0 2 34h6v28a2 2 0 0 0 2 2h14a2 2 0 0 0 2-2v-8c0-1.104.896-2 2-2h8a2 2 0 0 1 2 2v8a2 2 0 0 0 2 2h14a2 2 0 0 0 2-2V34h6a2 2 0 0 0 1.414-3.414z" opacity="1" data-original="url(#a)" class=""></path></g></svg>