<svg xmlns="http://www.w3.org/2000/svg" version="1.1" xmlns:xlink="http://www.w3.org/1999/xlink" width="512" height="512" x="0" y="0" viewBox="0 0 64 64" style="enable-background:new 0 0 512 512" xml:space="preserve" class=""><g><linearGradient id="a" x1="9.24" x2="54.76" y1="32" y2="32" gradientUnits="userSpaceOnUse"><stop stop-opacity="1" stop-color="#b576e7" offset="0"></stop><stop stop-opacity="1" stop-color="#4081e0" offset="1"></stop></linearGradient><path fill="url(#a)" d="M54.76 51.74A8.26 8.26 0 0 1 46.508 60c-4.197 0-13.974-6.67-15.076-7.431-2.85-1.968-10.91-7.076-13.94-7.076A6.254 6.254 0 0 0 17.492 58c1.77 0 5.79-1.88 10.88-5.08.62.41 1.23.81 1.81 1.22C25.91 56.88 20.39 60 17.49 60a8.254 8.254 0 0 1 .002-16.507c4.197 0 13.974 6.67 15.076 7.43C35.419 52.892 43.479 58 46.509 58c8.239-.25 8.285-12.232.002-12.51-1.77 0-5.79 1.88-10.88 5.07-.62-.4-1.23-.8-1.81-1.21 4.34-2.78 9.8-5.86 12.69-5.86a8.275 8.275 0 0 1 8.25 8.25zM32 22.12a9.06 9.06 0 1 0-9.06-9.06A9.065 9.065 0 0 0 32 22.12zM15.52 41.4c.4.15 9.42 3.5 16.48-2.78a15.18 15.18 0 0 0 10.32 3.81 18.598 18.598 0 0 0 6.16-1.03 1.012 1.012 0 0 0 .64-.94 17.12 17.12 0 1 0-34.24 0 1.012 1.012 0 0 0 .64.94z" opacity="1" data-original="url(#a)" class=""></path></g></svg>