<svg xmlns="http://www.w3.org/2000/svg" version="1.1" xmlns:xlink="http://www.w3.org/1999/xlink" width="512" height="512" x="0" y="0" viewBox="0 0 64 64" style="enable-background:new 0 0 512 512" xml:space="preserve"><g><linearGradient id="a" x1="9.298" x2="54.702" y1="32" y2="32" gradientUnits="userSpaceOnUse"><stop stop-opacity="1" stop-color="#ffa68d" offset="0"></stop><stop stop-opacity="1" stop-color="#777777" offset="0"></stop></linearGradient><path fill="url(#a)" d="M46.507 59.99c-3.623.307-14.12-6.763-18.92-9.916-6.518-3.994-9.122-4.59-10.094-4.59a6.254 6.254 0 0 0 0 12.507c1.708 0 5.464-1.72 10.3-4.72a1 1 0 0 1 1.055 1.7c-3.694 2.29-8.662 5.02-11.355 5.02-10.937-.416-10.915-16.096 0-16.507 3.522-.334 14.137 6.767 18.69 9.776 4.864 3.007 8.627 4.73 10.324 4.73 8.28-.294 8.258-12.217 0-12.507-1.686 0-5.441 1.72-10.303 4.72a1 1 0 0 1-1.05-1.702c5.397-3.33 9.217-5.017 11.353-5.017 10.927.416 10.925 16.095 0 16.506zM14.884 40.457a17.116 17.116 0 1 1 34.232 0 1 1 0 0 1-.641.933 18.576 18.576 0 0 1-6.153 1.03A15.175 15.175 0 0 1 32 38.61c-7.057 6.286-16.082 2.93-16.475 2.78a1 1 0 0 1-.641-.933zm2.016-.717c2.16.638 9.094 2.115 14.391-3.212a1 1 0 0 1 1.418 0c5.294 5.327 12.23 3.85 14.391 3.212a15.117 15.117 0 0 0-30.2 0zm6.042-26.682A9.058 9.058 0 1 1 32 22.117a9.068 9.068 0 0 1-9.058-9.059zm2 0A7.058 7.058 0 1 0 32 6a7.067 7.067 0 0 0-7.058 7.058z" opacity="1" data-original="url(#a)"></path></g></svg>