<svg xmlns="http://www.w3.org/2000/svg" version="1.1" xmlns:xlink="http://www.w3.org/1999/xlink" width="512" height="512" x="0" y="0" viewBox="0 0 32 32" style="enable-background:new 0 0 512 512" xml:space="preserve" class=""><g><path fill="#2386e8" d="M18.23 28.904c-.722.13-1.472.196-2.23.196a13.05 13.05 0 0 1-3.594-.513c-.264-1.245-.22-2.335.169-3.227.366-.84.925-1.349 1.517-1.888.75-.682 1.599-1.455 1.681-2.824.104-1.73-.606-3.376-.634-3.439l-.088-.194c-.411-.878-1.587-2.95-3.621-3.218-1.579-.211-2.687.724-3.663 1.547-.775.654-1.444 1.223-2.22 1.16-1.007-.075-1.906-1.168-2.529-2.173C3.843 7.894 9.344 2.9 16 2.9c.236 0 .467.021.7.034-.751 2.231-.759 4.346.02 5.809.579 1.122 1.381 1.829 2.322 2.045.201.045.395.066.579.066.905 0 1.625-.489 2.274-.929.671-.455 1.244-.845 2.032-.797.353.021.486.107.777.296.361.234.856.556 1.788.738.399.08.836.111 1.274.118a12.844 12.844 0 0 1 1.277 4.557.9.9 0 1 0 1.793-.155C30.177 7.066 23.659 1.1 16 1.1 7.784 1.1 1.1 7.784 1.1 16S7.784 30.9 16 30.9c.864 0 1.722-.075 2.549-.224a.901.901 0 0 0-.319-1.772zm8.355-20.572a2.85 2.85 0 0 1-.9-.418c-.367-.238-.823-.534-1.646-.582-1.373-.091-2.368.571-3.154 1.104-.652.441-1.042.684-1.442.598-.4-.092-.799-.488-1.128-1.125-.573-1.078-.477-2.893.217-4.754 3.269.653 6.133 2.549 8.053 5.177zM2.956 17.109c.774.718 1.594 1.124 2.456 1.188 1.506.116 2.575-.786 3.517-1.58.917-.774 1.537-1.237 2.266-1.138 1.185.157 2.004 1.722 2.227 2.196l.066.146c.006.013.567 1.33.49 2.619-.037.61-.401.968-1.096 1.6-.64.582-1.436 1.307-1.956 2.5-.417.956-.552 2.04-.446 3.222-4.151-1.939-7.121-5.981-7.524-10.753z" opacity="1" data-original="#6621ba"></path><g fill="#f98a17"><path d="M24.64 16.207a6.268 6.268 0 0 0-6.261 6.26c0 3.798 4.135 7.195 5.401 8.145a1.432 1.432 0 0 0 1.717.001c1.268-.951 5.402-4.348 5.402-8.146a6.265 6.265 0 0 0-6.259-6.26zm0 12.797c-2.197-1.702-4.46-4.259-4.46-6.537 0-2.459 2.001-4.46 4.46-4.46s4.46 2.001 4.46 4.46c0 2.278-2.263 4.835-4.46 6.537z" fill="#000000" opacity="1" data-original="#f98a17" class=""></path><path d="M24.64 20.968a1.41 1.41 0 1 0 0 2.818 1.41 1.41 0 0 0 0-2.818z" fill="#000000" opacity="1" data-original="#f98a17" class=""></path></g></g></svg>