<svg xmlns="http://www.w3.org/2000/svg" version="1.1" xmlns:xlink="http://www.w3.org/1999/xlink" width="512" height="512" x="0" y="0" viewBox="0 0 24 24" style="enable-background:new 0 0 512 512" xml:space="preserve" class=""><g><g data-name="Layer 2"><g fill="#7fbde7"><path d="M12 13.521a1.745 1.745 0 0 1-1.017-.326L4.564 8.61a.75.75 0 1 1 .872-1.22l6.419 4.585a.252.252 0 0 0 .29 0l6.419-4.585a.75.75 0 0 1 .872 1.22l-6.419 4.585a1.75 1.75 0 0 1-1.017.326z" fill="#2386e8" opacity="1" data-original="#7fbde7" class=""></path><path d="M6 15.25a.75.75 0 0 1-.53-1.281l3.38-3.37a.75.75 0 0 1 1.06 1.062l-3.38 3.37a.748.748 0 0 1-.53.219zM18 15.25a.748.748 0 0 1-.53-.22l-3.37-3.37a.75.75 0 0 1 1.06-1.06l3.37 3.37a.75.75 0 0 1-.53 1.28z" fill="#2386e8" opacity="1" data-original="#7fbde7" class=""></path></g><path fill="#232323" d="M21 19.75H3A1.752 1.752 0 0 1 1.25 18V5A1.752 1.752 0 0 1 3 3.25h18A1.752 1.752 0 0 1 22.75 5v13A1.752 1.752 0 0 1 21 19.75zm-18-15a.25.25 0 0 0-.25.25v13a.25.25 0 0 0 .25.25h18a.25.25 0 0 0 .25-.25V5a.25.25 0 0 0-.25-.25z" opacity="1" data-original="#232323"></path></g></g></svg>