<svg xmlns="http://www.w3.org/2000/svg" version="1.1" xmlns:xlink="http://www.w3.org/1999/xlink" width="512" height="512" x="0" y="0" viewBox="0 0 512 512" style="enable-background:new 0 0 512 512" xml:space="preserve" class=""><g><linearGradient id="a" x1="121.074" x2="390.927" y1="431.745" y2="161.892" gradientUnits="userSpaceOnUse"><stop stop-opacity="1" stop-color="#b776e8" offset="0"></stop><stop stop-opacity="1" stop-color="#3e82e0" offset="1"></stop></linearGradient><path fill="url(#a)" d="m306.132 434.205 1.752-.141-.206 1.745c-3.084 26.115-25.354 45.911-51.677 45.911-26.322 0-48.59-19.798-51.675-45.911l-.206-1.745 1.752.141a624.479 624.479 0 0 0 50.13 2.025c16.726 0 33.456-.682 50.13-2.025zM264.001 38.28a8 8 0 0 0-8.002-8 8 8 0 0 0-8 8v30.301h16.002zm166.76 329.762c-33.558-47.755-49.762-101.896-49.762-160.143C380.999 138.975 324.924 82.9 256 82.9s-124.997 56.075-124.997 124.999c0 58.243-16.208 112.382-49.763 160.133-3.828 5.448-4.754 11.777-2.646 18.093 2.116 6.341 6.628 10.812 12.986 12.875 25.484 8.267 51.862 14.089 78.359 17.973 28.459 4.172 57.302 6.137 86.061 6.137 28.76 0 57.603-1.965 86.063-6.137 26.497-3.884 52.876-9.706 78.361-17.973 6.357-2.062 10.867-6.535 12.984-12.875 2.106-6.312 1.179-12.638-2.647-18.083z" opacity="1" data-original="url(#a)" class=""></path></g></svg>