<svg xmlns="http://www.w3.org/2000/svg" version="1.1" xmlns:xlink="http://www.w3.org/1999/xlink" width="512" height="512" x="0" y="0" viewBox="0 0 512 512" style="enable-background:new 0 0 512 512" xml:space="preserve" class=""><g><path d="M442.672 352.384c-31.263-44.483-47.115-95.544-47.115-151.763 0-74.267-58.314-135.162-131.558-139.323V31a8 8 0 0 0-16 0v30.298c-73.244 4.16-131.558 65.056-131.558 139.323 0 56.22-15.852 107.28-47.114 151.763-6.523 9.28-8.137 20.316-4.544 31.074 3.592 10.759 11.512 18.611 22.302 22.111 31.392 10.182 66.069 17.351 102.471 21.285C191.863 461.508 220.773 489 256 489s64.137-27.492 66.444-62.146c36.402-3.933 71.079-11.103 102.471-21.285 10.789-3.5 18.709-11.353 22.301-22.111s1.979-21.795-4.544-31.074zM256 473c-25.886 0-47.281-19.54-50.246-44.641 16.499 1.331 33.287 2.031 50.246 2.031s33.747-.7 50.246-2.031C303.281 453.46 281.886 473 256 473zm176.04-94.608c-1.971 5.902-6.142 10.038-12.062 11.959C371.493 406.077 314.79 414.39 256 414.39s-115.493-8.313-163.978-24.039c-5.92-1.921-10.091-6.057-12.063-11.96-1.971-5.902-1.121-11.715 2.458-16.808 33.193-47.229 50.024-101.385 50.024-160.962 0-68.13 55.428-123.558 123.558-123.558s123.558 55.428 123.558 123.558c0 59.576 16.831 113.731 50.025 160.963 3.579 5.092 4.429 10.903 2.458 16.808z" fill="#777777" opacity="1" data-original="#000000" class=""></path></g></svg>