<svg xmlns="http://www.w3.org/2000/svg" width="123.413" height="72.352" viewBox="0 0 123.413 72.352">
  <path id="Path_464" data-name="Path 464" d="M245.5,742.381a93.115,93.115,0,0,1-11.954-.713,52.054,52.054,0,0,1-15.039-4.056,29.437,29.437,0,0,1-9.629-6.891,25.04,25.04,0,0,1-5.517-10.073,33.222,33.222,0,0,1-1.116-10.352,57.258,57.258,0,0,1,2.919-14.984c.114-.361.212-.674.282-.911a26.9,26.9,0,0,1,6.025-10.179,51.676,51.676,0,0,1,8.655-7.536,71.843,71.843,0,0,1,11.194-6.486,2,2,0,0,1,1.616,3.659A69.155,69.155,0,0,0,222.376,680a47.549,47.549,0,0,0-7.952,6.927,22.948,22.948,0,0,0-5.139,8.613c-.08.27-.183.6-.3.977a53.582,53.582,0,0,0-2.737,13.941c-.288,7.23,1.6,13.146,5.605,17.586,4.6,5.091,12.07,8.342,22.214,9.661a88.583,88.583,0,0,0,11.382.678c10.616,0,23.3-1.508,37.882-4.511,13.059-2.922,22.953-6.657,29.408-11.1a24.449,24.449,0,0,0,6.442-6.175,13.685,13.685,0,0,0,2.36-6.1c.813-6.812-3.991-13.5-8.165-17.905A62.18,62.18,0,0,0,297.2,680.462a61.255,61.255,0,0,0-22.132-6.012A76.932,76.932,0,0,0,255.2,675.5a82.515,82.515,0,0,0-19.864,6.1,2,2,0,0,1-1.776-3.584,84.812,84.812,0,0,1,20.809-6.43,81.023,81.023,0,0,1,20.95-1.127,65.252,65.252,0,0,1,23.648,6.416,59.391,59.391,0,0,1,8.329,5.137,66.233,66.233,0,0,1,8.979,7.827,39.841,39.841,0,0,1,7.041,9.832,20.282,20.282,0,0,1,2.19,11.3c-.678,5.681-4.213,10.759-10.505,15.093a60.589,60.589,0,0,1-12.494,6.348,131.108,131.108,0,0,1-18.327,5.368l-.033.007a225.873,225.873,0,0,1-29.12,4.244Q250.053,742.381,245.5,742.381Z" transform="translate(-202.216 -670.029)" fill="#189a00"/>
</svg>
