<svg xmlns="http://www.w3.org/2000/svg" version="1.1" xmlns:xlink="http://www.w3.org/1999/xlink" width="512" height="512" x="0" y="0" viewBox="0 0 512 512" style="enable-background:new 0 0 512 512" xml:space="preserve" class=""><g><linearGradient id="a" x1="85.75" x2="426.246" y1="463.434" y2="122.938" gradientUnits="userSpaceOnUse"><stop stop-opacity="1" stop-color="#b176e7" offset="0.12355212355212356"></stop><stop stop-opacity="1" stop-color="#4381e0" offset="1"></stop></linearGradient><path fill="url(#a)" d="M75.935 214.052c-7.823-12.696-12.493-29.846-12.493-45.876 0-30.567 24.868-55.435 55.436-55.435s55.434 24.868 55.434 55.435c0 34.591-19.428 71.355-55.434 71.355-17.823 0-32.672-8.81-42.942-25.479zm317.189 25.479c36.006 0 55.435-36.764 55.435-71.355 0-30.567-24.868-55.435-55.435-55.435s-55.435 24.868-55.435 55.435c0 16.03 4.67 33.181 12.493 45.876 10.271 16.668 25.119 25.479 42.941 25.479zM256 236.364c19.803 0 36.454-9.714 48.153-28.092 9.379-14.732 14.758-34.112 14.758-53.172 0-34.689-28.222-62.911-62.911-62.911s-62.91 28.222-62.91 62.911c0 18.312 5.332 37.895 14.264 52.383 11.648 18.895 28.47 28.882 48.646 28.882zm59.928 21.593H196.044c-36.904 0-66.928 28.116-66.928 62.676v67.433c0 17.504 14.24 31.745 31.744 31.745h190.279c17.504 0 31.745-14.241 31.745-31.745v-67.433c0-34.56-30.037-62.676-66.957-62.676zm-191.359.146H66.954c-32.507 0-58.953 24.776-58.953 55.229v60.572c0 15.694 12.755 28.461 28.433 28.461h64.374a61.631 61.631 0 0 1-1.69-14.3v-67.433c0-24.076 9.654-46.035 25.452-62.53zm320.479 0h-57.623c15.803 16.495 25.46 38.454 25.46 62.53v67.433c0 4.923-.596 9.707-1.69 14.3h64.344c15.693 0 28.461-12.768 28.461-28.461v-60.572c0-30.454-26.446-55.229-58.952-55.229z" opacity="1" data-original="url(#a)" class=""></path></g></svg>