<svg xmlns="http://www.w3.org/2000/svg" version="1.1" xmlns:xlink="http://www.w3.org/1999/xlink" width="512" height="512" x="0" y="0" viewBox="0 0 64 64" style="enable-background:new 0 0 512 512" xml:space="preserve" class=""><g><linearGradient id="a" x1="3.998" x2="60" y1="32.023" y2="32.023" gradientUnits="userSpaceOnUse"><stop stop-opacity="1" stop-color="#b776e8" offset="0.05405405405405406"></stop><stop stop-opacity="1" stop-color="#3e82e0" offset="1"></stop><stop stop-opacity="1" stop-color="#3e82e0" offset="1"></stop></linearGradient><path fill="url(#a)" d="M23.01 23.22c.492-11.911 17.488-11.912 17.98 0 .087 5.916-5.9 10.291-11.42 8.65-3.78-1.06-6.56-4.54-6.56-8.65zm23.48 23.05c-1.18-6.92-7.23-12.2-14.49-12.2-8.2-.06-15.064 7.002-14.65 15.02.13.4.51.67.94.67h27.42c1.65-.14.834-2.441.78-3.49zm2.96-11.42c3.62 0 6.57-2.95 6.57-6.57-.33-8.69-12.812-8.688-13.14 0 0 3.62 2.95 6.57 6.57 6.57zm0 .7c-1.86 0-3.7.49-5.3 1.42.47.49.9 1.02 1.3 1.57a16.47 16.47 0 0 1 3.15 8.55H59c.55 0 1-.45 1-1 0-5.81-4.73-10.54-10.55-10.54zm-34.9-.7c3.62 0 6.57-2.95 6.57-6.57-.33-8.69-12.812-8.688-13.14 0 0 3.62 2.95 6.57 6.57 6.57zm5.3 2.12C13.031 32.859 3.858 38.115 4 46.09c0 .55.45 1 1 1h10.4a16.537 16.537 0 0 1 4.45-10.12z" opacity="1" data-original="url(#a)" class=""></path></g></svg>