<svg xmlns="http://www.w3.org/2000/svg" version="1.1" xmlns:xlink="http://www.w3.org/1999/xlink" width="512" height="512" x="0" y="0" viewBox="0 0 512 512" style="enable-background:new 0 0 512 512" xml:space="preserve" class=""><g><linearGradient id="a" x1="85.585" x2="426.411" y1="121.539" y2="462.364" gradientUnits="userSpaceOnUse"><stop stop-opacity="1" stop-color="#ffc23c" offset="0"></stop><stop stop-opacity="1" stop-color="#777777" offset="0"></stop></linearGradient><path fill="url(#a)" d="M123.429 248.309c40.157 0 61.826-39.785 61.826-77.218 0-34.091-27.735-61.827-61.826-61.827s-61.827 27.735-61.827 61.827c0 17.212 4.849 34.952 13.302 48.672 11.343 18.408 28.576 28.546 48.525 28.546zm0-109.045c17.549 0 31.826 14.277 31.826 31.827 0 19.606-9.874 47.218-31.826 47.218-24.048 0-31.827-31.812-31.827-47.218 0-17.549 14.277-31.827 31.827-31.827zm265.144 109.045c40.157 0 61.826-39.785 61.826-77.218 0-34.091-27.735-61.827-61.826-61.827s-61.827 27.735-61.827 61.827c0 17.212 4.849 34.952 13.302 48.672 11.343 18.409 28.576 28.546 48.525 28.546zm0-109.045c17.549 0 31.826 14.277 31.826 31.827 0 19.606-9.874 47.218-31.826 47.218-24.048 0-31.827-31.812-31.827-47.218 0-17.549 14.277-31.827 31.827-31.827zm50.199 110.537H338.344c-3.827 0-7.663.332-11.448.967a77.287 77.287 0 0 0-12.958-1.109H198.034a77.19 77.19 0 0 0-12.941 1.107 69.476 69.476 0 0 0-11.465-.965H73.229C37.262 249.801 8 277.447 8 311.429v58.562c0 19.712 16.024 35.749 35.721 35.749h88.261c7.029 10.179 18.765 16.866 32.037 16.866h183.963c13.272 0 25.008-6.687 32.038-16.866h88.232c19.712 0 35.749-16.037 35.749-35.749v-58.562c0-33.982-29.262-61.628-65.229-61.628zM38 369.991v-58.562c0-17.44 15.804-31.628 35.229-31.628h64.515c-7.976 11.033-12.647 24.353-12.647 38.686v57.253H43.721c-3.101 0-5.721-2.633-5.721-5.749zm318.905 13.663c0 4.936-4.003 8.952-8.924 8.952H164.018c-4.92 0-8.923-4.016-8.923-8.952v-65.167c0-21.41 19.262-38.828 42.938-38.828h115.904c23.692 0 42.967 17.418 42.967 38.828v65.167zM474 369.991c0 3.116-2.633 5.749-5.749 5.749h-81.346v-57.253c0-14.333-4.674-27.653-12.652-38.686h64.519c19.425 0 35.229 14.188 35.229 31.628v58.562zM256 245.248c44.853 0 69.055-44.736 69.055-86.828 0-38.061-30.978-69.026-69.055-69.026s-69.055 30.965-69.055 69.026c0 19.464 5.473 39.506 15.014 54.988 12.655 20.532 31.848 31.84 54.041 31.84zm0-125.854c21.535 0 39.055 17.507 39.055 39.026 0 23.597-12.117 56.828-39.055 56.828-29.509 0-39.055-38.286-39.055-56.828 0-21.519 17.52-39.026 39.055-39.026z" opacity="1" data-original="url(#a)" class=""></path></g></svg>