<svg xmlns="http://www.w3.org/2000/svg" version="1.1" xmlns:xlink="http://www.w3.org/1999/xlink" width="512" height="512" x="0" y="0" viewBox="0 0 512 512" style="enable-background:new 0 0 512 512" xml:space="preserve" class=""><g><path d="M400 0H112C50.144 0 0 50.144 0 112v288c0 61.856 50.144 112 112 112h288c61.856 0 112-50.144 112-112V112C512 50.144 461.856 0 400 0zm80 400c0 44.183-35.817 80-80 80H112c-44.183 0-80-35.817-80-80V112c0-44.183 35.817-80 80-80h288c44.183 0 80 35.817 80 80v288z" fill="#ffffff" opacity="1" data-original="#000000" class=""></path><path d="M160 112h-32c-8.837 0-16 7.163-16 16v32c0 8.837 7.163 16 16 16h32c8.837 0 16-7.163 16-16v-32c0-8.837-7.163-16-16-16zM160 224h-32c-8.837 0-16 7.163-16 16v32c0 8.837 7.163 16 16 16h32c8.837 0 16-7.163 16-16v-32c0-8.837-7.163-16-16-16zM160 336h-32c-8.837 0-16 7.163-16 16v32c0 8.837 7.163 16 16 16h32c8.837 0 16-7.163 16-16v-32c0-8.837-7.163-16-16-16zM208 128h192v32H208zM208 240h192v32H208zM208 352h192v32H208z" fill="#ffffff" opacity="1" data-original="#000000" class=""></path></g></svg>