<svg id="Слой_1" enable-background="new 0 0 512 512" height="512" viewBox="0 0 512 512" width="512" xmlns="http://www.w3.org/2000/svg"><g fill="rgb(0,0,0)"><path d="m161.876 434.037c27.772 48.089 79.523 77.963 135.055 77.963 85.996 0 155.959-69.963 155.959-155.959v-122.11c0-21.904-17.82-39.724-39.725-39.724-8.722 0-16.796 2.825-23.355 7.609-4.461-17.056-20.003-29.678-38.438-29.678-9.223 0-17.723 3.16-24.472 8.454-5.569-15.218-20.197-26.109-37.321-26.109-8.159 0-15.753 2.473-22.069 6.709v-77.33c0-21.904-17.82-39.724-39.725-39.724-21.904 0-39.724 17.82-39.724 39.724v210.602c0 2.708-1.587 5.195-4.042 6.338-3.307 1.537-7.177.316-9-2.843l-26.488-45.878c-15.819-27.4-50.978-36.821-78.38-21.002-5.105 2.948-8.757 7.707-10.283 13.402-1.525 5.695-.741 11.642 2.207 16.748zm-84.951-184.987c.177-.659.679-1.885 2.057-2.68 6.121-3.534 12.913-5.339 19.796-5.339 3.45 0 6.924.454 10.345 1.371 10.249 2.746 18.815 9.319 24.12 18.508l26.488 45.878c6.432 11.139 20.076 15.447 31.737 10.024 8.657-4.027 14.251-12.798 14.251-22.346v-210.604c0-12.169 9.9-22.069 22.069-22.069s22.069 9.9 22.069 22.069v163.31c0 4.875 3.952 8.828 8.828 8.828s8.828-3.952 8.828-8.828v-52.965c0-12.169 9.9-22.069 22.069-22.069s22.069 9.9 22.069 22.069v52.965c0 4.875 3.952 8.828 8.828 8.828 4.875 0 8.828-3.952 8.828-8.828v-35.31c0-12.169 9.9-22.069 22.069-22.069s22.069 9.9 22.069 22.069v39.724c0 4.875 3.952 8.828 8.828 8.828 4.875 0 8.828-3.952 8.828-8.828v-17.655c0-12.169 9.9-22.069 22.069-22.069s22.069 9.9 22.069 22.069v122.11c0 76.261-62.043 138.304-138.305 138.304-49.246 0-95.137-26.492-119.766-69.138l-99.802-172.808c-.796-1.377-.618-2.69-.441-3.349z"/><path d="m167.556 129.479c4.202-2.473 5.602-7.884 3.129-12.085-5.956-10.119-9.105-21.714-9.105-33.532 0-36.507 29.7-66.207 66.207-66.207s66.207 29.7 66.207 66.207c0 11.862-3.172 23.497-9.172 33.645-2.481 4.197-1.091 9.611 3.106 12.092 1.41.834 2.957 1.23 4.485 1.23 3.018 0 5.959-1.549 7.607-4.336 7.609-12.867 11.63-27.609 11.63-42.631-.001-46.242-37.621-83.862-83.863-83.862s-83.862 37.62-83.862 83.862c0 14.965 3.992 29.657 11.545 42.488 2.475 4.202 7.887 5.602 12.086 3.129z"/></g></svg>