<svg xmlns="http://www.w3.org/2000/svg" version="1.1" xmlns:xlink="http://www.w3.org/1999/xlink" width="512" height="512" x="0" y="0" viewBox="0 0 64 64" style="enable-background:new 0 0 512 512" xml:space="preserve"><g><path fill="#ffffff" fill-rule="evenodd" d="M32 6c-7.77 0-13.75 6.867-12.68 14.563l1.01 7.276a11.77 11.77 0 0 0 5.444 8.383 2 2 0 0 1 .903 2.089l-1.108 5.543a3 3 0 0 1-1.859 2.21l-12.553 4.859a4 4 0 0 0-2.27 2.244L6.954 58h50.092l-1.933-4.833a4 4 0 0 0-2.27-2.244L40.33 46.079a3 3 0 0 1-1.89-2.401l-.765-5.736a2 2 0 0 1 .87-1.927 11.766 11.766 0 0 0 5.125-8.176l1.01-7.276C45.75 12.867 39.77 6 32 6zM15.358 21.114C13.955 11.012 21.8 2 32 2s18.045 9.012 16.642 19.114l-1.01 7.275a15.756 15.756 0 0 1-5.835 10.202l.529 3.971 11.96 4.63a8 8 0 0 1 4.54 4.49l3.031 7.575A2 2 0 0 1 60 62H4a2 2 0 0 1-1.857-2.743l3.03-7.575a8 8 0 0 1 4.54-4.49l12.041-4.66.743-3.714a15.76 15.76 0 0 1-6.129-10.429z" clip-rule="evenodd" opacity="1" data-original="#000000"></path></g></svg>